<svg width="120" height="120" viewBox="0 0 120 120" fill="none" xmlns="http://www.w3.org/2000/svg">
<mask id="mask0" mask-type="alpha" maskUnits="userSpaceOnUse" x="0" y="0" width="120" height="120">
<circle cx="60" cy="60" r="57.5" fill="#C4C4C4" stroke="#0077FF" stroke-width="5"/>
</mask>
<g mask="url(#mask0)">
<rect x="-78.5" y="-123.5" width="277" height="373" fill="#C4C4C4" stroke="#0077FF" stroke-width="5"/>
<circle cx="60" cy="60" r="59" stroke="white" stroke-width="2"/>
<circle cx="60" cy="60" r="59" fill="#111111" fill-opacity="0.3" stroke="white" stroke-width="2"/>
<path d="M69.5832 38.25C69.5832 38.0289 69.4954 37.817 69.3391 37.6607C69.1828 37.5044 68.9709 37.4166 68.7498 37.4166H53.7498C53.5288 37.4166 53.3169 37.5044 53.1606 37.6607C53.0043 37.817 52.9165 38.0289 52.9165 38.25V53.25C52.9165 53.471 53.0043 53.6829 53.1606 53.8392C53.3169 53.9955 53.5288 54.0833 53.7498 54.0833H68.7498C68.9709 54.0833 69.1828 53.9955 69.3391 53.8392C69.4954 53.6829 69.5832 53.471 69.5832 53.25V38.25Z" stroke="white" stroke-linecap="round" stroke-linejoin="round"/>
<path d="M67.5002 50.75L65.286 44.8425C65.2589 44.7708 65.2125 44.708 65.152 44.661C65.0915 44.6139 65.0193 44.5845 64.9431 44.5759C64.867 44.5673 64.7899 44.5798 64.7204 44.6122C64.651 44.6445 64.5918 44.6954 64.5493 44.7592L61.6668 49.0833L59.9593 47.0342C59.9167 46.9831 59.8625 46.9429 59.8012 46.917C59.74 46.8911 59.6734 46.8803 59.607 46.8855C59.5407 46.8906 59.4766 46.9116 59.42 46.9466C59.3634 46.9816 59.316 47.0296 59.2818 47.0867L57.0835 50.75" stroke="white" stroke-linecap="round" stroke-linejoin="round"/>
<path d="M58.3335 43.2474C59.0239 43.2474 59.5835 42.6878 59.5835 41.9974C59.5835 41.3071 59.0239 40.7474 58.3335 40.7474C57.6431 40.7474 57.0835 41.3071 57.0835 41.9974C57.0835 42.6878 57.6431 43.2474 58.3335 43.2474Z" stroke="white" stroke-linecap="round" stroke-linejoin="round"/>
<path d="M69.5832 50.7474H52.9165" stroke="white" stroke-linecap="round" stroke-linejoin="round"/>
<path d="M52.9165 40.75H51.2498C51.0288 40.75 50.8169 40.8378 50.6606 40.9941C50.5043 41.1504 50.4165 41.3623 50.4165 41.5833V55.75C50.4165 55.971 50.5043 56.183 50.6606 56.3393C50.8169 56.4955 51.0288 56.5833 51.2498 56.5833H65.4165C65.6375 56.5833 65.8495 56.4955 66.0058 56.3393C66.162 56.183 66.2498 55.971 66.2498 55.75V54.0833" stroke="white" stroke-linecap="round" stroke-linejoin="round"/>
<path d="M21.0107 67.168V68.2812H17.2266V70.459H20.6689V71.5723H17.2266V73.8818H21.0498V75H15.9961V67.168H21.0107ZM21.6775 72.3242C21.6775 71.9824 21.7378 71.6488 21.8582 71.3232C21.9819 70.9945 22.1544 70.6982 22.3758 70.4346C22.5971 70.1709 22.8771 69.9593 23.2156 69.7998C23.5574 69.637 23.9301 69.5557 24.3338 69.5557C24.6202 69.5557 24.9344 69.6289 25.2762 69.7754C25.618 69.9219 25.88 70.1383 26.0623 70.4248V66.8555H27.2537V75H26.0916V74.165C25.9614 74.3799 25.7758 74.5605 25.535 74.707C25.2941 74.8535 25.0695 74.9528 24.8611 75.0049C24.6561 75.057 24.4705 75.083 24.3045 75.083C23.8064 75.083 23.354 74.9528 22.9471 74.6924C22.5402 74.432 22.226 74.0918 22.0047 73.6719C21.7866 73.252 21.6775 72.8027 21.6775 72.3242ZM26.0818 72.3242C26.0818 71.849 25.9321 71.4486 25.6326 71.123C25.3364 70.7975 24.9523 70.6348 24.4803 70.6348C24.0083 70.6348 23.6225 70.7975 23.323 71.123C23.0268 71.4486 22.8787 71.849 22.8787 72.3242C22.8787 72.793 23.0268 73.1901 23.323 73.5156C23.6225 73.8411 24.0083 74.0039 24.4803 74.0039C24.9523 74.0039 25.3364 73.8411 25.6326 73.5156C25.9321 73.1901 26.0818 72.793 26.0818 72.3242ZM28.5846 68.4863C28.4316 68.3333 28.3551 68.1478 28.3551 67.9297C28.3551 67.7116 28.4316 67.526 28.5846 67.373C28.7376 67.2168 28.9215 67.1387 29.1363 67.1387C29.3544 67.1387 29.54 67.2168 29.693 67.373C29.846 67.526 29.9225 67.7116 29.9225 67.9297C29.9225 68.1478 29.846 68.3333 29.693 68.4863C29.54 68.6361 29.3544 68.7109 29.1363 68.7109C28.9215 68.7109 28.7376 68.6361 28.5846 68.4863ZM28.5455 75H29.7369V69.6631H28.5455V75ZM34.0463 70.7324H32.6889V73.2812C32.6889 73.5156 32.7523 73.6898 32.8793 73.8037C33.0095 73.9144 33.2211 73.9697 33.5141 73.9697C33.6313 73.9697 33.7924 73.9567 33.9975 73.9307V74.9414C33.7566 75.013 33.4717 75.0488 33.143 75.0488C32.5896 75.0488 32.1778 74.9219 31.9076 74.668C31.6374 74.4108 31.5023 73.9697 31.5023 73.3447V70.7324H30.4672V69.6631H31.5023V68.0078H32.6889V69.6631H34.0463V70.7324ZM43.0459 69.6045C43.0459 69.9463 42.9824 70.2669 42.8555 70.5664C42.7318 70.8659 42.5511 71.1312 42.3135 71.3623C42.0791 71.5902 41.7764 71.7708 41.4053 71.9043C41.0342 72.0345 40.6191 72.0996 40.1602 72.0996H38.7637V75H37.5332V67.168H40.3066C40.6875 67.168 41.0326 67.2135 41.3418 67.3047C41.6543 67.3958 41.9131 67.5195 42.1182 67.6758C42.3265 67.8288 42.5007 68.0111 42.6406 68.2227C42.7839 68.4342 42.8864 68.6556 42.9482 68.8867C43.0133 69.1146 43.0459 69.3538 43.0459 69.6045ZM41.7959 69.6338C41.7959 69.5068 41.7812 69.3848 41.752 69.2676C41.7259 69.1504 41.6755 69.0316 41.6006 68.9111C41.529 68.7907 41.4346 68.6882 41.3174 68.6035C41.2035 68.5156 41.0505 68.444 40.8584 68.3887C40.6663 68.3333 40.4466 68.3057 40.1992 68.3057H38.7637V70.9717H40.1992C40.4824 70.9717 40.7314 70.9326 40.9463 70.8545C41.1611 70.7731 41.3271 70.6657 41.4443 70.5322C41.5648 70.3988 41.6527 70.2572 41.708 70.1074C41.7666 69.9544 41.7959 69.7965 41.7959 69.6338ZM46.784 70.8643C46.6863 70.8447 46.574 70.835 46.4471 70.835C45.9946 70.835 45.6479 70.9619 45.407 71.2158C45.1694 71.4665 45.0506 71.8229 45.0506 72.2852V75H43.8592V69.6631H45.0262V70.4834C45.1824 70.2035 45.3924 69.9886 45.6561 69.8389C45.9197 69.6891 46.198 69.6143 46.491 69.6143C46.5984 69.6143 46.6961 69.624 46.784 69.6436V70.8643ZM47.0162 72.3242C47.0162 71.8066 47.1432 71.3346 47.3971 70.9082C47.651 70.4818 47.9944 70.1497 48.4273 69.9121C48.8603 69.6712 49.3323 69.5508 49.8434 69.5508C50.3479 69.5508 50.815 69.6696 51.2447 69.9072C51.6744 70.1449 52.0146 70.4753 52.2652 70.8984C52.5191 71.3216 52.6461 71.7887 52.6461 72.2998C52.6461 72.8174 52.5208 73.291 52.2701 73.7207C52.0227 74.1471 51.6826 74.4824 51.2496 74.7266C50.8199 74.9707 50.3479 75.0928 49.8336 75.0928C49.3258 75.0928 48.8554 74.9723 48.4225 74.7314C47.9928 74.4906 47.651 74.1585 47.3971 73.7354C47.1432 73.3089 47.0162 72.8385 47.0162 72.3242ZM48.232 72.2998C48.232 72.7686 48.3818 73.1722 48.6812 73.5107C48.984 73.846 49.3714 74.0137 49.8434 74.0137C50.3154 74.0137 50.6979 73.8509 50.9908 73.5254C51.287 73.1966 51.4352 72.7962 51.4352 72.3242C51.4352 71.849 51.2854 71.4486 50.9859 71.123C50.6897 70.7943 50.3056 70.6299 49.8336 70.6299C49.3583 70.6299 48.9726 70.791 48.6764 71.1133C48.3801 71.4323 48.232 71.8278 48.232 72.2998ZM55.1732 70.7129V75H53.9818V70.7129H52.9516V69.6631H53.9818V69.043C53.9818 68.6523 54.0339 68.3122 54.1381 68.0225C54.2423 67.7295 54.3871 67.4984 54.5727 67.3291C54.7582 67.1598 54.9649 67.0345 55.1928 66.9531C55.4239 66.8717 55.6762 66.8311 55.9496 66.8311C56.2361 66.8311 56.459 66.862 56.6186 66.9238V67.9346C56.5339 67.9053 56.3907 67.8906 56.1889 67.8906C56.088 67.8906 55.9887 67.9036 55.891 67.9297C55.7934 67.9557 55.6859 68.0046 55.5687 68.0762C55.4516 68.1478 55.3555 68.265 55.2807 68.4277C55.209 68.5905 55.1732 68.7891 55.1732 69.0234V69.6631H58.7475V75H57.5512V70.7129H55.1732ZM57.3656 67.9297C57.3656 67.7116 57.4421 67.526 57.5951 67.373C57.7481 67.2168 57.9304 67.1387 58.142 67.1387C58.3601 67.1387 58.5456 67.2168 58.6986 67.373C58.8549 67.526 58.933 67.7116 58.933 67.9297C58.933 68.1478 58.8565 68.3333 58.7035 68.4863C58.5505 68.6361 58.3633 68.7109 58.142 68.7109C57.9304 68.7109 57.7481 68.6344 57.5951 68.4814C57.4421 68.3285 57.3656 68.1445 57.3656 67.9297ZM61.2307 75H60.0393V66.8555H61.2307V75ZM63.3818 72.6758C63.3916 72.9395 63.4714 73.1803 63.6211 73.3984C63.7741 73.6133 63.9678 73.7793 64.2021 73.8965C64.4365 74.0137 64.6855 74.0723 64.9492 74.0723C65.291 74.0723 65.5872 73.999 65.8379 73.8525C66.0885 73.7061 66.2643 73.4798 66.3652 73.1738L67.3711 73.4814C67.2734 73.8135 67.0993 74.1048 66.8486 74.3555C66.6012 74.6029 66.3148 74.7884 65.9893 74.9121C65.6637 75.0358 65.3219 75.0977 64.9639 75.0977C64.4463 75.0977 63.9727 74.9772 63.543 74.7363C63.1165 74.4954 62.7796 74.1634 62.5322 73.7402C62.2881 73.3138 62.166 72.8418 62.166 72.3242C62.166 71.8229 62.2799 71.3607 62.5078 70.9375C62.7389 70.5143 63.0612 70.1774 63.4746 69.9268C63.888 69.6761 64.347 69.5508 64.8516 69.5508C65.6654 69.5508 66.3034 69.8047 66.7656 70.3125C67.2279 70.8203 67.459 71.486 67.459 72.3096C67.459 72.4463 67.4525 72.5684 67.4395 72.6758H63.3818ZM64.8613 70.5713C64.4935 70.5713 64.1777 70.682 63.9141 70.9033C63.6536 71.1247 63.4974 71.4176 63.4453 71.7822H66.248C66.2285 71.4111 66.0869 71.1165 65.8232 70.8984C65.5628 70.6803 65.2422 70.5713 64.8613 70.5713ZM76.4342 69.6045C76.4342 69.9463 76.3707 70.2669 76.2438 70.5664C76.1201 70.8659 75.9394 71.1312 75.7018 71.3623C75.4674 71.5902 75.1646 71.7708 74.7936 71.9043C74.4225 72.0345 74.0074 72.0996 73.5484 72.0996H72.152V75H70.9215V67.168H73.6949C74.0758 67.168 74.4208 67.2135 74.7301 67.3047C75.0426 67.3958 75.3014 67.5195 75.5064 67.6758C75.7148 67.8288 75.8889 68.0111 76.0289 68.2227C76.1721 68.4342 76.2747 68.6556 76.3365 68.8867C76.4016 69.1146 76.4342 69.3538 76.4342 69.6045ZM75.1842 69.6338C75.1842 69.5068 75.1695 69.3848 75.1402 69.2676C75.1142 69.1504 75.0637 69.0316 74.9889 68.9111C74.9173 68.7907 74.8229 68.6882 74.7057 68.6035C74.5917 68.5156 74.4387 68.444 74.2467 68.3887C74.0546 68.3333 73.8349 68.3057 73.5875 68.3057H72.152V70.9717H73.5875C73.8707 70.9717 74.1197 70.9326 74.3346 70.8545C74.5494 70.7731 74.7154 70.6657 74.8326 70.5322C74.9531 70.3988 75.041 70.2572 75.0963 70.1074C75.1549 69.9544 75.1842 69.7965 75.1842 69.6338ZM79.4643 75.0928C78.9467 75.0928 78.4747 74.9723 78.0482 74.7314C77.6251 74.4873 77.2914 74.1536 77.0473 73.7305C76.8064 73.3073 76.6859 72.8369 76.6859 72.3193C76.6859 71.818 76.8064 71.3558 77.0473 70.9326C77.2914 70.5094 77.6283 70.1742 78.058 69.9268C78.4877 69.6761 78.963 69.5508 79.4838 69.5508C80.1153 69.5508 80.654 69.7184 81.1 70.0537C81.5492 70.389 81.834 70.7959 81.9545 71.2744L80.8754 71.626C80.8428 71.512 80.7924 71.4014 80.724 71.2939C80.6589 71.1865 80.5727 71.0807 80.4652 70.9766C80.3578 70.8724 80.2178 70.7894 80.0453 70.7275C79.876 70.6624 79.6872 70.6299 79.4789 70.6299C79.0329 70.6299 78.6586 70.7845 78.3559 71.0938C78.0564 71.403 77.9066 71.805 77.9066 72.2998C77.9066 72.7946 78.0564 73.2031 78.3559 73.5254C78.6553 73.8477 79.0329 74.0088 79.4887 74.0088C80.169 74.0088 80.6378 73.6702 80.8949 72.9932L81.9838 73.3447C81.9219 73.5596 81.8243 73.7663 81.6908 73.9648C81.5574 74.1634 81.3881 74.349 81.183 74.5215C80.9812 74.694 80.7305 74.8324 80.4311 74.9365C80.1348 75.0407 79.8126 75.0928 79.4643 75.0928ZM85.8537 70.7324H84.4963V73.2812C84.4963 73.5156 84.5598 73.6898 84.6867 73.8037C84.8169 73.9144 85.0285 73.9697 85.3215 73.9697C85.4387 73.9697 85.5998 73.9567 85.8049 73.9307V74.9414C85.564 75.013 85.2792 75.0488 84.9504 75.0488C84.397 75.0488 83.9852 74.9219 83.715 74.668C83.4449 74.4108 83.3098 73.9697 83.3098 73.3447V70.7324H82.2746V69.6631H83.3098V68.0078H84.4963V69.6631H85.8537V70.7324ZM87.9268 72.6514C87.9268 73.0518 88.0244 73.374 88.2197 73.6182C88.415 73.8623 88.7096 73.9844 89.1035 73.9844C89.4779 73.9844 89.7773 73.8607 90.002 73.6133C90.2266 73.3659 90.3389 73.0387 90.3389 72.6318V69.6631H91.5303V75H90.3682V74.2822C90.2087 74.4971 90.0215 74.6696 89.8066 74.7998C89.5918 74.93 89.4014 75.0146 89.2354 75.0537C89.0693 75.0928 88.9033 75.1123 88.7373 75.1123C88.3044 75.1123 87.9349 75.0146 87.6289 74.8193C87.3229 74.624 87.0967 74.3669 86.9502 74.0479C86.807 73.7256 86.7354 73.3577 86.7354 72.9443V69.6631H87.9268V72.6514ZM95.7469 70.8643C95.6492 70.8447 95.5369 70.835 95.41 70.835C94.9575 70.835 94.6108 70.9619 94.3699 71.2158C94.1323 71.4665 94.0135 71.8229 94.0135 72.2852V75H92.8221V69.6631H93.9891V70.4834C94.1453 70.2035 94.3553 69.9886 94.6189 69.8389C94.8826 69.6891 95.1609 69.6143 95.4539 69.6143C95.5613 69.6143 95.659 69.624 95.7469 69.6436V70.8643ZM97.1998 72.6758C97.2096 72.9395 97.2893 73.1803 97.4391 73.3984C97.5921 73.6133 97.7857 73.7793 98.0201 73.8965C98.2545 74.0137 98.5035 74.0723 98.7672 74.0723C99.109 74.0723 99.4052 73.999 99.6559 73.8525C99.9065 73.7061 100.082 73.4798 100.183 73.1738L101.189 73.4814C101.091 73.8135 100.917 74.1048 100.667 74.3555C100.419 74.6029 100.133 74.7884 99.8072 74.9121C99.4817 75.0358 99.1399 75.0977 98.7818 75.0977C98.2643 75.0977 97.7906 74.9772 97.3609 74.7363C96.9345 74.4954 96.5976 74.1634 96.3502 73.7402C96.1061 73.3138 95.984 72.8418 95.984 72.3242C95.984 71.8229 96.0979 71.3607 96.3258 70.9375C96.5569 70.5143 96.8792 70.1774 97.2926 69.9268C97.706 69.6761 98.165 69.5508 98.6695 69.5508C99.4833 69.5508 100.121 69.8047 100.584 70.3125C101.046 70.8203 101.277 71.486 101.277 72.3096C101.277 72.4463 101.27 72.5684 101.257 72.6758H97.1998ZM98.6793 70.5713C98.3115 70.5713 97.9957 70.682 97.732 70.9033C97.4716 71.1247 97.3154 71.4176 97.2633 71.7822H100.066C100.046 71.4111 99.9049 71.1165 99.6412 70.8984C99.3808 70.6803 99.0602 70.5713 98.6793 70.5713Z" fill="white"/>
</g>
</svg>
